<svg xmlns="http://www.w3.org/2000/svg" viewBox="0 0 360 170" role="img" aria-label="대전창조경제혁신센터">
  <rect width="360" height="170" fill="none"/>
  <g transform="translate(120 12)">
    <path d="M60 8C92 8 118 34 118 66C118 98 92 124 60 124C28 124 2 98 2 66C2 34 28 8 60 8Z" fill="none" stroke="#1f72bd" stroke-width="14" stroke-linecap="round" stroke-dasharray="98 54" transform="rotate(18 60 66)"/>
    <path d="M60 8C92 8 118 34 118 66C118 98 92 124 60 124C28 124 2 98 2 66C2 34 28 8 60 8Z" fill="none" stroke="#e84a65" stroke-width="14" stroke-linecap="round" stroke-dasharray="98 54" transform="rotate(138 60 66)"/>
    <path d="M60 8C92 8 118 34 118 66C118 98 92 124 60 124C28 124 2 98 2 66C2 34 28 8 60 8Z" fill="none" stroke="#2a8bd2" stroke-width="14" stroke-linecap="round" stroke-dasharray="98 54" transform="rotate(258 60 66)"/>
  </g>
  <text x="180" y="154" text-anchor="middle" font-family="Arial, 'Noto Sans KR', sans-serif" font-size="28" font-weight="800" fill="#555">
    대전창조경제혁신센터
  </text>
</svg>
